<?xml version="1.0" encoding="utf-8"?>
<!-- Generator: Adobe Illustrator 17.0.0, SVG Export Plug-In . SVG Version: 6.00 Build 0)  -->
<!DOCTYPE svg PUBLIC "-//W3C//DTD SVG 1.1//EN" "http://www.w3.org/Graphics/SVG/1.1/DTD/svg11.dtd">
<svg version="1.1" id="Layer_1" xmlns="http://www.w3.org/2000/svg" xmlns:xlink="http://www.w3.org/1999/xlink" x="0px" y="0px"
	 width="250px" height="250px" viewBox="0 0 250 250" enable-background="new 0 0 250 250" xml:space="preserve">
<path fill="#FBC015" d="M125,6l103,59.5v119L125,244L22,184.5v-119L125,6 M125,0c-1.036,0-2.073,0.268-3.001,0.805l-103,59.5
	C17.143,61.377,16,63.357,16,65.5v119c0,2.143,1.143,4.123,2.999,5.195l103,59.5c0.928,0.536,1.965,0.805,3.001,0.805
	s2.073-0.268,3.001-0.805l103-59.5c1.856-1.072,2.999-3.052,2.999-5.195v-119c0-2.143-1.143-4.123-2.999-5.195l-103-59.5
	C127.073,0.268,126.036,0,125,0L125,0z"/>
<g enable-background="new    ">
	<path fill="#FBC015" d="M162.102,180.273h-20.306l-16.33-49.842l-16.33,49.842H88.972L61.141,79.17h25.986l13.206,53.392
		l16.33-53.392h17.607l16.33,53.392l13.206-53.392h25.985L162.102,180.273z"/>
</g>
</svg>
